<?xml version="1.0" encoding="utf-8"?>
<!-- Generator: Adobe Illustrator 16.0.0, SVG Export Plug-In . SVG Version: 6.00 Build 0)  -->
<!DOCTYPE svg PUBLIC "-//W3C//DTD SVG 1.1//EN" "http://www.w3.org/Graphics/SVG/1.1/DTD/svg11.dtd">
<svg version="1.1" id="Capa_1" xmlns="http://www.w3.org/2000/svg" xmlns:xlink="http://www.w3.org/1999/xlink" x="0px" y="0px"
	 width="30px" height="45px" viewBox="0 0 30 45" enable-background="new 0 0 30 45" xml:space="preserve">
<g>
	<circle opacity="0.5" fill="#FFFFFF" enable-background="new    " cx="15.127" cy="17.612" r="10.035"/>
	<path fill="#FF0000" d="M28.383,17.553c0-7.398-5.996-13.389-13.382-13.389c-7.391,0-13.383,5.994-13.383,13.389
		c0,2.605,0.762,5.035,2.057,7.093H3.662l11.342,18.326L26.34,24.646h-0.01C27.625,22.589,28.383,20.159,28.383,17.553z M15,25.279
		c-4.267,0-7.726-3.46-7.726-7.726c0-4.267,3.459-7.73,7.726-7.73c4.266,0,7.729,3.463,7.729,7.73
		C22.729,21.819,19.268,25.279,15,25.279z"/>
</g>
</svg>
