<?xml version="1.0" encoding="utf-8"?>
<!-- Generator: Adobe Illustrator 16.0.0, SVG Export Plug-In . SVG Version: 6.00 Build 0)  -->
<!DOCTYPE svg PUBLIC "-//W3C//DTD SVG 1.1//EN" "http://www.w3.org/Graphics/SVG/1.1/DTD/svg11.dtd">
<svg version="1.1" id="Layer_1" xmlns="http://www.w3.org/2000/svg" xmlns:xlink="http://www.w3.org/1999/xlink" x="0px" y="0px"
	 width="75px" height="75px" viewBox="0 0 75 75" enable-background="new 0 0 75 75" xml:space="preserve">
<path fill="#1E67FA" d="M37.5,0C16.789,0,0,16.79,0,37.5C0,58.213,16.789,75,37.5,75C58.209,75,75,58.213,75,37.5
	C75,16.79,58.209,0,37.5,0z M37.5,72.5c-19.33,0-35-15.668-35-35c0-19.33,15.669-35,35-35c19.329,0,35,15.67,35,35
	C72.5,56.832,56.828,72.5,37.5,72.5z"/>
<path fill="#1E67FA" d="M37.5,5C19.551,5,5,19.551,5,37.5S19.551,70,37.5,70S70,55.449,70,37.5S55.449,5,37.5,5z M37.5,67.5
	c-16.568,0-30-13.432-30-30s13.432-30,30-30s30,13.432,30,30S54.068,67.5,37.5,67.5z"/>
<circle fill="#1E67FA" cx="37.5" cy="37.5" r="27.5"/>
</svg>
